<svg xmlns="http://www.w3.org/2000/svg" viewBox="0 0 803.28 741.06"><defs><style>.cls-1{fill:#a32227;}.cls-2{fill:#fff;}.cls-3{fill:#fefdfd;}</style></defs><g id="图层_2" data-name="图层 2"><g id="图层_1-2" data-name="图层 1"><path class="cls-1" d="M236.52,387.51c-125.84-121-77.9-266.75,5.42-333.58,93.87-75.28,238.44-71.43,328.71,9.54,82.27,73.8,110.12,216.34-7.1,324.64,19.86,9.23,39.67,17.12,58.07,27.21C737.24,478.7,795.07,574.13,803.13,696.66c1.83,27.7-13.74,44.1-44.48,44.15q-356.85.5-713.71,0c-32.83,0-46.69-15.11-44.76-46.32C8.73,556,80.1,456.56,217.44,398.24,224.11,395.41,232.83,395.07,236.52,387.51Z"/><path class="cls-2" d="M401.49,378.09c-47.86,0-53.22-6.19-40.29-46.85,10.05-31.64,33.67-53,63.16-70.69,23.61-14.17,28.71-40.48,15.08-60.94-13.22-19.84-40.34-27-63.14-16.41-9.07,4.19-15.28,10.88-20.66,18.87-5.86,8.72-.81,25.29-17.8,25.72-21.78.56-44.22,1.05-65.25-3.19-13.93-2.8-6.22-17.68-4.56-26.32,9.87-51.46,60.2-92.32,118.86-97.93,56.29-5.37,113.94,27.48,135.59,77.26,21.19,48.75,5.25,106.71-39.55,139.69-19.34,14.24-40.72,23.81-43.94,52.32C437,387.36,412.44,373.39,401.49,378.09Z"/><path class="cls-3" d="M397.56,408c26-.62,51,21.46,51.88,45.8.84,23.73-23.48,47-49.76,47.61-26.11.6-51.13-21.57-51.64-45.76C347.53,431.25,371,408.66,397.56,408Z"/></g></g></svg>