<svg xmlns="http://www.w3.org/2000/svg" viewBox="0 0 545.69 543.88"><defs><style>.cls-1{fill:#a32227;}.cls-2{fill:#fff;}.cls-3{fill:#fffefe;}</style></defs><g id="图层_2" data-name="图层 2"><g id="图层_1-2" data-name="图层 1"><path class="cls-1" d="M86.91,464.82c8.41-22.36,19.59-41.87,34.64-59.19,5.94-6.83-2.8-11.07-5.85-15.41C79.34,338.64,69.17,282,87.12,222.07c20.89-69.7,69-113.49,138.56-133.91a19.27,19.27,0,0,1,4.58-.78c4.21-.19,9.47-3.68,11.43,3.56,2.16,8-4.82,6.8-8.43,7.65C206.62,104.81,183,117,161.09,133.12,83,190.52,67,311.92,127.79,386.69c4.09,5,6.52,6.43,12.08,1.74a184.75,184.75,0,0,1,25.31-17.86c8.86-5.22,18.48-9.17,29-14.3-28.44-28.39-42.76-62.1-38-102.18,3.62-30.48,17.21-56.2,40.85-76.05,47.39-39.78,115.63-37,159.43,6.19,47.38,46.72,46.55,110.57-3.3,172.64,20.15,8.43,39.21,18.25,55.46,32.54,6.28,5.53,7.81-.92,10.32-4.11,45.8-58.1,48.85-144.58,7.66-206.33-27.29-40.9-64.35-67.72-112.06-80-3.92-1-11.83.77-10-8.12,1.93-9.17,8.65-4,12.36-3.13,80.48,18.84,142.67,88.57,149.43,171.91,4,48.89-8.22,93.34-37.89,132.56-5.23,6.92-6,11.45.39,18.2,14.29,15.16,22.77,34.15,31.37,54.13,35.9-36.22,58.9-77.66,70.8-125.37.75-3,.83-6.31,2.17-9,1.45-2.95-1.26-9.22,6.28-8,7.06,1.18,5.8,5.16,4.86,10.07-6.32,32.89-18.75,63.33-36.46,91.64-10.46,16.72-22.25,32.49-36.59,46.08-5.45,5.17-7.33,9.86-5.42,17.61,2.46,10,3.06,20.44,3.72,30.75,1.05,16.43-5.48,23.73-22,25.33-3.6.34-7.25.12-10.88.12q-163.18,0-326.38,0c-29,0-37.08-6.53-32-34.61,4.26-23.35-2.32-38.61-17.83-55.57C29.73,419.85,11.14,378.89,2.31,333.81c-.72-3.64-5.95-8.66,2.22-11.13,8.86-2.69,7.62,4.16,8.63,8.66,11,49.06,33.27,92.1,68.07,128.51C82.57,461.25,84.15,462.42,86.91,464.82Z"/><path class="cls-1" d="M247.56,0c154,0,264.65,86.69,294.74,211,1.09,4.52,1.64,9.19,3,13.64,1.23,4.07-.25,5.72-4.06,6.14-3,.33-6.15,1.51-7.07-3.17q-1.8-9.12-4.16-18.13C499.33,92.3,389.74,8.67,270,11,146.8,13.42,41.74,98.22,14.64,217.09c-.57,2.52-1.68,5-1.87,7.52-.41,5.34-2.86,6.94-8.12,6.21-7.86-1.1-3.49-5.68-2.87-9,8.93-47.93,29.84-90.3,61.92-126.65C119.1,32.36,189.24.9,247.56,0Z"/><path class="cls-2" d="M301.58,280.65c0,15.49-1.25,25.55-1.18,41,0,7.21-.92,11.35-10.53,9.28a80.83,80.83,0,0,0-35.39.31c-7.51,1.77-8.61-1.06-8.81-7.59-.92-31-2-61.95-3.61-92.9-.42-8.06,1.65-10.84,9.93-10.47,13.93.62,27.94.71,41.87,0,9.37-.49,10.93,3.11,10.42,11.62-.87,14.39-2.31,30.29-2.31,44.73C301.45,278,302,278.89,301.58,280.65Z"/><path class="cls-3" d="M272.53,343.66c14.84-.27,28,12.26,28.32,27s-12.11,27.54-27.22,27.82-28-11.74-28.26-26.72C245.09,356.9,257.64,343.93,272.53,343.66Z"/></g></g></svg>